<?xml version="1.0" encoding="utf-8"?>
<svg xmlns="http://www.w3.org/2000/svg" width="800" height="800" viewBox="0 0 800 800">
  <defs>
    <linearGradient id="g1" x1="0" x2="1" y1="0" y2="1">
      <stop offset="0%" stop-color="#f3fff2"/>
      <stop offset="100%" stop-color="#ffffff"/>
    </linearGradient>
  </defs>
  <rect width="100%" height="100%" fill="url(#g1)"/>
  <g fill="#4f9a2d" opacity="0.08">
    <path d="M110 260c20-40 80-60 120-40s80 100 20 120-160-10-140-80z" />
    <path d="M400 90c40-10 80 10 100 40s10 80-30 90-120-30-90-110z"/>
    <path d="M600 420c30 10 60-10 80-30s20-60-10-80-90-10-100 40 0 60 30 70z"/>
    <circle cx="220" cy="520" r="36" />
    <circle cx="620" cy="200" r="18" />
  </g>
  <g transform="translate(40,520) scale(0.9)" opacity="0.7">
    <g transform="translate(80,0)">
      <ellipse cx="80" cy="40" rx="80" ry="40" fill="#f59e0b" opacity="0.14"/>
      <g transform="translate(0,0)">
        <path d="M30 40c6-12 22-18 36-14s22 26 10 36-44 4-46-22z" fill="#f97316" opacity="0.18"/>
      </g>
    </g>
  </g>
</svg>